<svg width="21" height="24" viewBox="0 0 21 24" fill="none" xmlns="http://www.w3.org/2000/svg">
<path d="M16.6327 14.8224L15.8112 14.3481L18.0125 13.7583L17.6487 12.4006L14.0897 13.3542L12.411 12.385C12.4342 12.26 12.4469 12.1315 12.4469 12C12.4469 11.8684 12.4342 11.7398 12.411 11.6149L14.0897 10.6457L17.6487 11.5994L18.0125 10.2416L15.8112 9.65177L16.6327 9.17747L20.1579 8.96588L20.677 6.03095L17.8758 5.01305L15.9299 7.96016L15.1084 8.43446L15.6983 6.23317L14.3405 5.86939L13.3869 9.42842L11.7073 10.3982C11.5126 10.2315 11.2875 10.0997 11.0413 10.0124V8.0742L13.6467 5.46879L12.6528 4.47488L11.0413 6.08633V5.13772L12.6158 1.98876L10.3385 0L8.06122 1.98886L9.6357 5.13782V6.08642L8.02421 4.47497L7.03029 5.46889L9.63566 8.0743V10.0125C9.38949 10.0998 9.1644 10.2316 8.96972 10.3983L7.29005 9.42852L6.33644 5.86949L4.9787 6.23326L5.56855 8.43456L4.74705 7.96025L2.80121 5.01314L0 6.03104L0.519095 8.96597L4.04429 9.17757L4.86578 9.65187L2.66449 10.2417L3.02831 11.5994L6.58734 10.6458L8.26597 11.615C8.24283 11.74 8.23008 11.8685 8.23008 12C8.23008 12.1316 8.24278 12.2602 8.26597 12.3851L6.58734 13.3543L3.02831 12.4006L2.66449 13.7584L4.86578 14.3482L4.04429 14.8225L0.519095 15.034L0 17.969L2.80126 18.9869L4.7471 16.0397L5.56864 15.5654L4.9788 17.7667L6.33653 18.1306L7.29015 14.5715L8.96981 13.6018C9.16449 13.7684 9.38958 13.9003 9.63575 13.9875V15.9258L7.03039 18.5311L8.0243 19.525L9.6358 17.9135V18.8621L8.06132 22.0111L10.3386 24L12.6159 22.0111L11.0414 18.8621V17.9135L12.6529 19.525L13.6468 18.5311L11.0415 15.9258V13.9875C11.2876 13.9003 11.5127 13.7684 11.7074 13.6018L13.3871 14.5715L14.3407 18.1306L15.6984 17.7667L15.1086 15.5654L15.9301 16.0397L17.876 18.9869L20.6772 17.969L20.1581 15.034L16.6327 14.8224Z" fill="#FF4646"/>
</svg>
